HIERARCHY
ROOT root
{
	OFFSET 0.000000 0.000000 0.000000
	CHANNELS 6 Xposition Yposition Zposition Zrotation Yrotation Xrotation
	JOINT lhip
	{
		OFFSET 0.058581 -0.082280 -0.017664
		CHANNELS 3 Zrotation Yrotation Xrotation
		JOINT lknee
		{
			OFFSET 0.043451 -0.386469 0.008037
			CHANNELS 3 Zrotation Yrotation Xrotation
			JOINT lankle
			{
				OFFSET -0.014790 -0.426874 -0.037428
				CHANNELS 3 Zrotation Yrotation Xrotation
				JOINT ltoe
				{
					OFFSET 0.041054 -0.060286 0.122042
					CHANNELS 3 Zrotation Yrotation Xrotation
					End Site
					{
						OFFSET 0.000000 0.000000 0.000000
					}
				}
			}
		}
	}
	JOINT rhip
	{
		OFFSET -0.060310 -0.090513 -0.013543
		CHANNELS 3 Zrotation Yrotation Xrotation
		JOINT rknee
		{
			OFFSET -0.043257 -0.383688 -0.004843
			CHANNELS 3 Zrotation Yrotation Xrotation
			JOINT rankle
			{
				OFFSET 0.019056 -0.420046 -0.034562
				CHANNELS 3 Zrotation Yrotation Xrotation
				JOINT rtoe
				{
					OFFSET -0.034840 -0.062106 0.130323
					CHANNELS 3 Zrotation Yrotation Xrotation
					End Site
					{
						OFFSET 0.000000 0.000000 0.000000
					}
				}
			}
		}
	}
	JOINT lowerback
	{
		OFFSET 0.004439 0.124404 -0.038385
		CHANNELS 3 Zrotation Yrotation Xrotation
		JOINT upperback
		{
			OFFSET 0.004488 0.137956 0.026820
			CHANNELS 3 Zrotation Yrotation Xrotation
			JOINT chest
			{
				OFFSET -0.002265 0.056032 0.002855
				CHANNELS 3 Zrotation Yrotation Xrotation
				JOINT lowerneck
				{
					OFFSET -0.013390 0.211636 -0.033468
					CHANNELS 3 Zrotation Yrotation Xrotation
					JOINT upperneck
					{
						OFFSET 0.010113 0.088937 0.050410
						CHANNELS 3 Zrotation Yrotation Xrotation
						End Site
						{
							OFFSET 0.000000 0.000000 0.000000
						}
					}
				}
				JOINT lclavicle
				{
					OFFSET 0.071702 0.114000 -0.018898
					CHANNELS 3 Zrotation Yrotation Xrotation
					JOINT lshoulder
					{
						OFFSET 0.122921 0.045205 -0.019046
						CHANNELS 3 Zrotation Yrotation Xrotation
						JOINT lelbow
						{
							OFFSET 0.255332 -0.015649 -0.022946
							CHANNELS 3 Zrotation Yrotation Xrotation
							JOINT lwrist
							{
								OFFSET 0.265709 0.012698 -0.007375
								CHANNELS 3 Zrotation Yrotation Xrotation
								End Site
								{
									OFFSET 0.000000 0.000000 0.000000
								}
							}
						}
					}
				}
				JOINT rclavicle
				{
					OFFSET -0.082954 0.112472 -0.023707
					CHANNELS 3 Zrotation Yrotation Xrotation
					JOINT rshoulder
					{
						OFFSET -0.113228 0.046853 -0.008472
						CHANNELS 3 Zrotation Yrotation Xrotation
						JOINT relbow
						{
							OFFSET -0.260127 -0.014369 -0.031269
							CHANNELS 3 Zrotation Yrotation Xrotation
							JOINT rwrist
							{
								OFFSET -0.269108 0.006794 -0.006027
								CHANNELS 3 Zrotation Yrotation Xrotation
								End Site
								{
									OFFSET 0.000000 0.000000 0.000000
								}
							}
						}
					}
				}
			}
		}
	}
}
MOTION
Frames: 11
Frame Time: 0.033333
-0.205822 0.353923 0.993607 90.988866 0.708376 88.783217 10.887082 6.786349 2.199726 -3.906850 -7.509985 4.570065 -6.279373 11.854555 -10.451761 0.000000 -0.000000 0.000000 -10.221034 -7.632164 -0.308268 2.051638 3.367974 11.021351 6.036619 -15.020061 -12.541417 0.000000 -0.000000 0.000000 1.496722 0.531151 3.627117 -0.007861 -1.914372 0.041991 0.462123 -0.143911 -0.986252 -2.410639 -3.002777 -6.669960 3.014484 -2.273087 -6.161096 2.227997 1.629284 -2.390742 -9.694997 -2.746263 -13.994608 8.210851 -8.062487 -5.356715 0.952222 -12.395090 6.604313 -4.244638 -1.187798 -4.009048 7.831807 0.593918 -12.809395 -7.018280 3.817435 -13.285977 -0.756844 6.746753 0.712966 
-0.205662 0.354151 0.993775 90.976055 0.695476 88.718555 10.870150 6.798893 2.294273 -3.911499 -7.606670 4.545900 -6.290279 11.946315 -10.464653 0.000000 -0.000000 0.000000 -10.264364 -7.668466 -0.227701 2.066128 3.430150 11.012863 6.060420 -15.030507 -12.552356 0.000000 -0.000000 0.000000 1.516184 0.565332 3.765838 -0.037671 -1.889078 -0.096601 0.393044 -0.099042 -0.945378 -2.338493 -2.942891 -6.636090 3.004196 -2.403620 -6.091259 2.207992 1.616863 -2.582106 -9.486239 -2.912790 -14.049855 8.052069 -7.890254 -5.333193 0.967306 -12.522197 6.913765 -4.188362 -1.236058 -4.027403 7.795974 0.495102 -12.800299 -6.974683 3.856170 -13.188549 -0.792954 6.788515 0.637575 
-0.205661 0.354152 0.993775 90.975918 0.695396 88.718282 10.870030 6.798967 2.294718 -3.911517 -7.607043 4.545796 -6.290282 11.946770 -10.464719 0.000000 -0.000000 0.000000 -10.264590 -7.668707 -0.227320 2.066181 3.430466 11.012737 6.060606 -15.030469 -12.552341 0.000000 -0.000000 0.000000 1.516294 0.565546 3.766397 -0.037776 -1.888923 -0.097224 0.392701 -0.098804 -0.945103 -2.338166 -2.942526 -6.635846 3.004084 -2.404305 -6.090910 2.207958 1.617016 -2.583417 -9.485187 -2.913886 -14.050083 8.051177 -7.889218 -5.332834 0.967333 -12.522815 6.915345 -4.188083 -1.236425 -4.027438 7.795693 0.494669 -12.800292 -6.974417 3.856211 -13.187988 -0.793077 6.788680 0.637246 
-0.205661 0.354152 0.993775 90.975916 0.695396 88.718281 10.870030 6.798968 2.294721 -3.911517 -7.607045 4.545796 -6.290282 11.946774 -10.464719 0.000000 -0.000000 0.000000 -10.264592 -7.668709 -0.227318 2.066182 3.430468 11.012736 6.060607 -15.030468 -12.552340 0.000000 -0.000000 0.000000 1.516295 0.565548 3.766401 -0.037777 -1.888921 -0.097228 0.392699 -0.098802 -0.945101 -2.338164 -2.942524 -6.635844 3.004083 -2.404308 -6.090908 2.207958 1.617018 -2.583426 -9.485180 -2.913893 -14.050084 8.051171 -7.889211 -5.332832 0.967333 -12.522818 6.915354 -4.188082 -1.236427 -4.027437 7.795691 0.494666 -12.800292 -6.974415 3.856211 -13.187984 -0.793077 6.788681 0.637245 
-0.204556 0.354528 0.993961 90.522444 0.945007 88.856377 11.177845 7.232233 2.244610 -4.077285 -7.716599 4.735510 -6.652413 12.129372 -10.583149 0.000000 -0.000000 0.000000 -9.964205 -7.190442 -0.268896 2.043042 3.436439 10.704700 5.301141 -14.990891 -11.737117 0.000000 -0.000000 0.000000 1.764116 1.046983 3.491119 -0.164461 -1.714948 -0.145901 0.460906 -0.058507 -0.971871 -1.993936 -2.711416 -5.805437 2.478264 -2.436387 -5.934727 2.271390 1.683265 -2.909844 -9.452061 -3.096643 -14.123319 8.412963 -7.518495 -5.495064 0.556299 -12.923960 7.661379 -4.472823 -1.070212 -4.341444 7.782755 -0.400757 -12.560123 -6.639879 4.084813 -12.395320 -1.388529 6.675940 0.753870 
-0.204549 0.354543 0.993964 90.525079 0.940952 88.851117 11.171799 7.228614 2.250918 -4.075087 -7.719706 4.733379 -6.646921 12.133193 -10.584872 0.000000 -0.000000 0.000000 -9.971227 -7.199716 -0.263024 2.043592 3.440065 10.705816 5.312910 -14.990591 -11.748104 0.000000 -0.000000 0.000000 1.762025 1.044006 3.498870 -0.164120 -1.714860 -0.151634 0.455038 -0.055023 -0.967612 -1.993385 -2.708176 -5.808643 2.482994 -2.444327 -5.933318 2.271670 1.687756 -2.923734 -9.437930 -3.106841 -14.124354 8.394790 -7.510035 -5.488806 0.555335 -12.922806 7.669498 -4.465357 -1.077811 -4.338575 7.779072 -0.395688 -12.562139 -6.641074 4.084538 -12.397753 -1.375965 6.676158 0.745305 
-0.204549 0.354543 0.993964 90.525080 0.940950 88.851115 11.171796 7.228612 2.250921 -4.075086 -7.719707 4.733379 -6.646919 12.133195 -10.584873 0.000000 -0.000000 0.000000 -9.971231 -7.199720 -0.263021 2.043593 3.440066 10.705816 5.312916 -14.990590 -11.748110 0.000000 -0.000000 0.000000 1.762024 1.044005 3.498874 -0.164120 -1.714860 -0.151636 0.455035 -0.055021 -0.967609 -1.993385 -2.708174 -5.808643 2.482996 -2.444330 -5.933316 2.271670 1.687759 -2.923741 -9.437923 -3.106846 -14.124355 8.394781 -7.510030 -5.488803 0.555334 -12.922805 7.669501 -4.465354 -1.077815 -4.338574 7.779071 -0.395685 -12.562140 -6.641075 4.084538 -12.397754 -1.375958 6.676158 0.745301 
-0.203885 0.354972 0.994156 90.662478 0.804310 88.410255 11.000204 7.199561 2.701978 -3.942796 -7.791834 4.731013 -6.516423 11.971295 -10.624503 0.000000 -0.000000 0.000000 -10.267384 -7.789804 0.208735 2.077331 3.736603 10.822573 5.610975 -14.821674 -12.184236 0.000000 -0.000000 0.000000 1.744627 0.897962 3.861325 -0.313682 -1.622875 -0.122014 0.370378 0.022269 -1.012404 -2.240250 -2.986876 -5.474908 2.903986 -2.428191 -5.984663 2.357638 1.641499 -3.084593 -9.119608 -3.150730 -14.478819 7.786263 -7.332702 -5.556846 0.408375 -12.598062 8.016216 -4.406706 -1.039972 -4.047142 8.005710 -0.715606 -12.719531 -6.981900 4.358884 -12.613088 -0.887280 6.593439 0.552756 
-0.203869 0.354973 0.994115 90.661548 0.796869 88.406547 10.990437 7.190062 2.705967 -3.942525 -7.794235 4.732409 -6.504182 11.989531 -10.630092 0.000000 -0.000000 0.000000 -10.276506 -7.796010 0.209396 2.076135 3.739468 10.829978 5.631900 -14.823312 -12.199939 0.000000 -0.000000 0.000000 1.740039 0.891280 3.865823 -0.309241 -1.622772 -0.144411 0.353984 0.029968 -0.996683 -2.229737 -2.964278 -5.475651 2.901625 -2.442705 -5.968061 2.351816 1.667061 -3.119361 -9.099523 -3.173243 -14.471416 7.755537 -7.308710 -5.534534 0.408327 -12.605984 8.021492 -4.388339 -1.069944 -4.047732 7.988784 -0.680276 -12.722196 -6.964784 4.346288 -12.601603 -0.875128 6.600575 0.533556 
-0.203869 0.354973 0.994114 90.661572 0.796684 88.406432 10.990179 7.189821 2.706087 -3.942542 -7.794356 4.732472 -6.503892 11.989962 -10.630260 0.000000 -0.000000 0.000000 -10.276756 -7.796143 0.209472 2.076118 3.739548 10.830144 5.632354 -14.823379 -12.200319 0.000000 -0.000000 0.000000 1.739983 0.891134 3.865997 -0.309152 -1.622805 -0.144880 0.353624 0.030103 -0.996309 -2.229532 -2.963806 -5.475607 2.901579 -2.443034 -5.967721 2.351747 1.667458 -3.120017 -9.099082 -3.173814 -14.471263 7.754898 -7.308196 -5.534071 0.408312 -12.606175 8.021600 -4.388000 -1.070492 -4.047684 7.988444 -0.679515 -12.722232 -6.964406 4.346062 -12.601309 -0.874862 6.600750 0.533056 
-0.204063 0.354923 0.993890 90.740051 0.773060 88.464978 10.954021 7.209284 2.604285 -3.939328 -7.791001 4.784936 -6.496824 11.931425 -10.592968 0.000000 -0.000000 0.000000 -10.267325 -7.735301 0.156793 2.100214 3.829269 10.839380 5.608716 -15.131958 -12.298495 0.000000 -0.000000 0.000000 1.745945 0.813381 3.836506 -0.283147 -1.636167 -0.215520 0.198219 0.049882 -1.100805 -2.215108 -2.999731 -5.120934 3.043224 -2.308775 -6.105688 2.389703 1.339610 -2.625163 -9.047343 -2.779239 -14.523088 7.638955 -7.401041 -5.733839 1.007527 -12.782231 7.708001 -4.358850 -0.915759 -3.748666 8.088484 -0.795035 -12.751636 -6.876939 4.414946 -12.469854 -1.105286 6.681081 -0.064831 
